<svg width="14" height="14" viewBox="0 0 14 14" fill="none" xmlns="http://www.w3.org/2000/svg">
<path d="M6.962 4.39669H5.962V8.39669L9.12867 10.2967L9.62867 9.47669L6.962 7.89669V4.39669ZM10.1867 0.27002L13.258 2.83335L12.4047 3.85669L9.33133 1.29469L10.1867 0.27002ZM3.07067 0.27002L3.92533 1.29402L0.853333 3.85669L0 2.83269L3.07067 0.27002ZM6.62867 1.73002C3.31533 1.73002 0.628667 4.41669 0.628667 7.73002C0.628667 11.0434 3.31533 13.73 6.62867 13.73C9.942 13.73 12.6287 11.0434 12.6287 7.73002C12.6287 4.41669 9.942 1.73002 6.62867 1.73002ZM6.62867 12.3967C4.05533 12.3967 1.962 10.3034 1.962 7.73002C1.962 5.15669 4.05533 3.06335 6.62867 3.06335C9.202 3.06335 11.2953 5.15669 11.2953 7.73002C11.2953 10.3034 9.202 12.3967 6.62867 12.3967Z" fill="white"/>
</svg>
