<svg width="109" height="16" viewBox="0 0 109 16" fill="none" xmlns="http://www.w3.org/2000/svg">
<path fill-rule="evenodd" clip-rule="evenodd" d="M8.36332 0L10.3376 6.07631H16.7266L11.5578 9.83163L13.5322 15.9079L8.36332 12.1526L3.19446 15.9079L5.16873 9.83163L0 6.07631H6.38904L8.36332 0Z" fill="#F9BF00"/>
<path fill-rule="evenodd" clip-rule="evenodd" d="M27.0899 0L29.0642 6.07631H35.4532L30.2843 9.83163L32.2587 15.9079L27.0899 12.1526L21.921 15.9079L23.8953 9.83163L18.7266 6.07631H25.1156L27.0899 0Z" fill="#F9BF00"/>
<path fill-rule="evenodd" clip-rule="evenodd" d="M45.8164 0L47.7907 6.07631H54.1798L49.0109 9.83163L50.9853 15.9079L45.8164 12.1526L40.6476 15.9079L42.6219 9.83163L37.4531 6.07631H43.8422L45.8164 0Z" fill="#F9BF00"/>
<path fill-rule="evenodd" clip-rule="evenodd" d="M64.543 0L66.5173 6.07631H72.9063L67.7375 9.83163L69.7119 15.9079L64.543 12.1526L59.3741 15.9079L61.3484 9.83163L56.1797 6.07631H62.5687L64.543 0Z" fill="#F9BF00"/>
<path fill-rule="evenodd" clip-rule="evenodd" d="M83.2696 0L85.2438 6.07631H91.6329L86.464 9.83163L88.4384 15.9079L83.2696 12.1526L78.1007 15.9079L80.075 9.83163L74.9062 6.07631H81.2953L83.2696 0Z" fill="#F9BF00"/>
</svg>
