<svg width="15" height="15" viewBox="0 0 15 15" fill="none" xmlns="http://www.w3.org/2000/svg">
<path d="M6.56823 8.5511L5.23599 7.21886C5.12238 7.10526 4.9778 7.04846 4.80223 7.04846C4.62667 7.04846 4.48208 7.10526 4.36848 7.21886C4.25488 7.33246 4.19808 7.47704 4.19808 7.65261C4.19808 7.82818 4.25488 7.97276 4.36848 8.08637L6.13447 9.85236C6.2584 9.97629 6.40299 10.0383 6.56823 10.0383C6.73347 10.0383 6.87805 9.97629 7.00198 9.85236L10.503 6.35135C10.6166 6.23775 10.6734 6.09316 10.6734 5.9176C10.6734 5.74203 10.6166 5.59745 10.503 5.48384C10.3894 5.37024 10.2448 5.31344 10.0692 5.31344C9.89367 5.31344 9.74909 5.37024 9.63548 5.48384L6.56823 8.5511ZM7.43574 13.6322C6.57856 13.6322 5.77301 13.4696 5.01911 13.1442C4.2652 12.8189 3.60941 12.3774 3.05173 11.8197C2.49404 11.2621 2.05255 10.6063 1.72723 9.85236C1.40192 9.09846 1.23926 8.29291 1.23926 7.43574C1.23926 6.57856 1.40192 5.77301 1.72723 5.01911C2.05255 4.2652 2.49404 3.60941 3.05173 3.05173C3.60941 2.49404 4.2652 2.05255 5.01911 1.72723C5.77301 1.40192 6.57856 1.23926 7.43574 1.23926C8.29291 1.23926 9.09846 1.40192 9.85236 1.72723C10.6063 2.05255 11.2621 2.49404 11.8197 3.05173C12.3774 3.60941 12.8189 4.2652 13.1442 5.01911C13.4696 5.77301 13.6322 6.57856 13.6322 7.43574C13.6322 8.29291 13.4696 9.09846 13.1442 9.85236C12.8189 10.6063 12.3774 11.2621 11.8197 11.8197C11.2621 12.3774 10.6063 12.8189 9.85236 13.1442C9.09846 13.4696 8.29291 13.6322 7.43574 13.6322ZM7.43574 12.3929C8.81962 12.3929 9.99178 11.9127 10.9522 10.9522C11.9127 9.99178 12.3929 8.81962 12.3929 7.43574C12.3929 6.05186 11.9127 4.87969 10.9522 3.91923C9.99178 2.95878 8.81962 2.47855 7.43574 2.47855C6.05186 2.47855 4.87969 2.95878 3.91923 3.91923C2.95878 4.87969 2.47855 6.05186 2.47855 7.43574C2.47855 8.81962 2.95878 9.99178 3.91923 10.9522C4.87969 11.9127 6.05186 12.3929 7.43574 12.3929Z" fill="black"/>
</svg>
