<svg width="62" height="42" viewBox="0 0 62 42" fill="none" xmlns="http://www.w3.org/2000/svg">
<rect y="0.339844" width="62" height="41" rx="4" fill="#B9E8FF"/>
<path d="M38.3395 9.22707C37.1921 7.78961 35.118 7.17334 32.4647 7.17334H24.7639C24.221 7.17334 23.7597 7.60729 23.6747 8.19569L20.4683 30.5479C20.4045 30.9887 20.715 31.388 21.1215 31.388H25.8756L27.0697 23.0638L27.0327 23.3245C27.1176 22.7361 27.5755 22.3021 28.1177 22.3021H30.3769C34.815 22.3021 38.2902 20.3207 39.3053 14.5889C39.3354 14.4194 39.3615 14.2544 39.3841 14.0932C39.2559 14.0186 39.2559 14.0186 39.3841 14.0932C39.6864 11.9747 39.3821 10.5327 38.3395 9.22707Z" fill="#27346A"/>
<path d="M28.8888 13.33C29.0156 13.2637 29.1568 13.2268 29.3049 13.2268H35.3421C36.057 13.2268 36.724 13.278 37.3333 13.3858C37.5081 13.4167 37.6774 13.4521 37.8419 13.4928C38.0064 13.5327 38.1661 13.5779 38.321 13.6276C38.3985 13.6525 38.4745 13.6781 38.5493 13.7052C38.8488 13.8152 39.1278 13.9433 39.3841 14.0932C39.6864 11.9739 39.3821 10.5327 38.3395 9.22707C37.1914 7.78961 35.118 7.17334 32.4647 7.17334H24.7632C24.221 7.17334 23.7597 7.60729 23.6747 8.19569L20.4683 30.5472C20.4045 30.9887 20.715 31.3872 21.1208 31.3872H25.8756L28.3528 14.1211C28.4035 13.767 28.6105 13.4769 28.8888 13.33Z" fill="#27346A"/>
<path d="M39.3052 14.589C38.2901 20.32 34.815 22.3022 30.3768 22.3022H28.1169C27.5748 22.3022 27.1169 22.7361 27.0326 23.3245L25.5473 33.6746C25.4917 34.0603 25.7632 34.4099 26.1182 34.4099H30.1259C30.6003 34.4099 31.004 34.0302 31.078 33.5156L31.1171 33.2911L31.8724 28.0294L31.9211 27.7386C31.9951 27.2241 32.3988 26.8443 32.8731 26.8443H33.4729C37.3552 26.8443 40.3951 25.1108 41.2834 20.097C41.6542 18.0018 41.4623 16.2525 40.4814 15.0237C40.1839 14.6515 39.8145 14.3441 39.3841 14.0933C39.3607 14.2552 39.3354 14.4195 39.3052 14.589Z" fill="#2790C3"/>
<path d="M38.3216 13.6279C38.1667 13.5781 38.0069 13.5329 37.8424 13.493C37.6779 13.4531 37.508 13.4177 37.3339 13.3868C36.7238 13.2783 36.0576 13.2271 35.342 13.2271H29.3054C29.1567 13.2271 29.0155 13.264 28.8893 13.331C28.6104 13.4779 28.4041 13.7672 28.3533 14.1221L27.0702 23.064L27.0332 23.3247C27.1175 22.7363 27.5754 22.3024 28.1176 22.3024H30.3774C34.8156 22.3024 38.2907 20.3209 39.3058 14.5892C39.336 14.4197 39.3614 14.2554 39.3847 14.0934C39.1276 13.9443 38.8493 13.8154 38.5498 13.7062C38.4751 13.6791 38.399 13.6527 38.3216 13.6279Z" fill="#1F264F"/>
</svg>
