<svg width="13" height="15" viewBox="0 0 13 15" fill="none" xmlns="http://www.w3.org/2000/svg">
<path fill-rule="evenodd" clip-rule="evenodd" d="M0 7.50367C0 5.74784 0.684819 4.06392 1.90381 2.82236C3.12279 1.5808 4.77609 0.883301 6.5 0.883301C8.22391 0.883301 9.87721 1.5808 11.0962 2.82236C12.3152 4.06392 13 5.74784 13 7.50367C13 9.2595 12.3152 10.9434 11.0962 12.185C9.87721 13.4265 8.22391 14.124 6.5 14.124C4.77609 14.124 3.12279 13.4265 1.90381 12.185C0.684819 10.9434 0 9.2595 0 7.50367H0ZM6.12907 10.3372L9.87133 5.57229L9.19533 5.02147L6.00427 9.08285L3.744 7.16471L3.18933 7.84263L6.12907 10.3381V10.3372Z" fill="black"/>
</svg>
