<svg width="21" height="21" viewBox="0 0 21 21" fill="none" xmlns="http://www.w3.org/2000/svg">
<path d="M6.3 16.8C5.145 16.8 4.2105 17.745 4.2105 18.9C4.2105 20.055 5.145 21 6.3 21C7.455 21 8.4 20.055 8.4 18.9C8.4 17.745 7.455 16.8 6.3 16.8ZM0 0V2.1H2.1L5.88 10.0695L4.4625 12.642C4.2945 12.936 4.2 13.2825 4.2 13.65C4.2 14.805 5.145 15.75 6.3 15.75H18.9V13.65H6.741C6.594 13.65 6.4785 13.5345 6.4785 13.3875L6.51 13.2615L7.455 11.55H15.2775C16.065 11.55 16.758 11.1195 17.115 10.4685L20.874 3.654C20.958 3.507 21 3.3285 21 3.15C21 2.5725 20.5275 2.1 19.95 2.1H4.4205L3.4335 0H0ZM16.8 16.8C15.645 16.8 14.7105 17.745 14.7105 18.9C14.7105 20.055 15.645 21 16.8 21C17.955 21 18.9 20.055 18.9 18.9C18.9 17.745 17.955 16.8 16.8 16.8Z" fill="white"/>
</svg>
