<svg width="62" height="42" viewBox="0 0 62 42" fill="none" xmlns="http://www.w3.org/2000/svg">
<rect y="0.839844" width="62" height="41" rx="5" fill="#09175F"/>
<path d="M38.2976 13.3359C34.8736 13.3359 31.8138 15.0963 31.8138 18.3488C31.8138 22.0788 37.2405 22.3364 37.2405 24.2102C37.2405 24.9992 36.3289 25.7055 34.7721 25.7055C32.5626 25.7055 30.9112 24.7186 30.9112 24.7186L30.2046 28.0007C30.2046 28.0007 32.107 28.8343 34.6327 28.8343C38.3761 28.8343 41.3218 26.9875 41.3218 23.6794C41.3218 19.738 35.8725 19.488 35.8725 17.7488C35.8725 17.1308 36.6208 16.4536 38.1732 16.4536C39.9248 16.4536 41.3538 17.1713 41.3538 17.1713L42.0454 14.0013C42.0454 14.0013 40.4904 13.3359 38.2976 13.3359ZM6.97158 13.5752L6.88867 14.0537C6.88867 14.0537 8.32914 14.3152 9.62652 14.8368C11.297 15.435 11.416 15.7832 11.6973 16.8647L14.763 28.5876H18.8726L25.2038 13.5752H21.1036L17.0355 23.7822L15.3754 15.1302C15.2232 14.14 14.452 13.5752 13.5081 13.5752H6.97158ZM26.8525 13.5752L23.6361 28.5876H27.5459L30.7511 13.5752H26.8525ZM48.6592 13.5752C47.7163 13.5752 47.2168 14.0759 46.8503 14.9508L41.1221 28.5876H45.2222L46.0155 26.3148H51.0107L51.4931 28.5876H55.1109L51.9547 13.5752H48.6592ZM49.1924 17.6311L50.4078 23.2645H47.1517L49.1924 17.6311Z" fill="white"/>
</svg>
